<?xml version="1.0" encoding="UTF-8"?>
<svg id="Layer_1" xmlns="http://www.w3.org/2000/svg" version="1.1" viewBox="0 0 1080 1080">
  <!-- Generator: Adobe Illustrator 29.0.1, SVG Export Plug-In . SVG Version: 2.1.0 Build 192)  -->
  <defs>
    <style>
      .st0 {
        fill: none;
      }

      .st1 {
        fill: #b6ddbc;
      }

      .st2 {
        fill: #1d5650;
      }

      .st3 {
        fill: #26726c;
      }

      .st4 {
        fill: #a3d5aa;
      }

      .st5 {
        fill: #001d37;
      }

      .st6 {
        fill: #033033;
      }
    </style>
  </defs>
  <g>
    <path class="st1" d="M665.78,850.78l-88.44,68.08c-11.68,8.99-25.63,13.48-39.57,13.48-14.15,0-28.3-4.63-40.07-13.86l-86.19-67.68h-13.89l94.78,74.43c13.32,10.46,29.34,15.7,45.37,15.7s31.58-5.08,44.81-15.26l97.26-74.86h-13.53c-.17,0-.35,0-.52-.01Z"/>
    <path class="st1" d="M295.2,758.44h-11.18c3.81,5.07,8.31,9.68,13.44,13.71l54,42.4v-10.91l-48.7-38.24c-2.73-2.14-5.25-4.47-7.56-6.96Z"/>
    <path class="st1" d="M802.05,438.62v103.14c2.97.67,5.83,1.59,8.58,2.75v-105.89c0-28.75-16.6-53.68-40.72-65.74-.09,1.46-.34,2.93-.76,4.37-.41,1.42-.98,2.76-1.67,4.02,20.54,10.9,34.57,32.52,34.57,57.35Z"/>
    <path class="st1" d="M277.96,438.62c0-24.57,13.73-46,33.93-57.01-.1-.17-.2-.35-.29-.53-.03-.06-.06-.12-.1-.18-.04-.07-.08-.15-.11-.22-.02-.05-.04-.09-.07-.14-.08-.15-.15-.31-.23-.47-.05-.1-.09-.2-.13-.3-.03-.08-.07-.15-.1-.23-.03-.07-.06-.14-.09-.21-.01-.03-.02-.05-.03-.08-.07-.18-.14-.36-.21-.55-.03-.08-.06-.17-.1-.26-.04-.1-.08-.2-.11-.3,0-.02-.02-.05-.02-.08-.03-.09-.06-.18-.09-.27-.01-.04-.03-.09-.04-.14-.07-.23-.14-.45-.2-.68-.03-.11-.06-.22-.09-.33-.08-.3-.15-.6-.21-.9-.02-.1-.04-.2-.06-.3-.08-.39-.14-.78-.19-1.17,0-.06-.01-.11-.02-.17-.02-.13-.03-.25-.04-.38,0-.04-.01-.09-.01-.13-.01-.12-.02-.23-.03-.35-23.68,12.21-39.91,36.91-39.91,65.34v100.03h8.58v-100.03Z"/>
    <path class="st1" d="M776.74,765.37l-47.73,36.74c.17,1.73.27,3.53.27,5.41v5.2l52.7-40.56c5.16-3.97,9.72-8.61,13.61-13.73h-11.21c-2.34,2.5-4.89,4.82-7.63,6.93Z"/>
    <path class="st6" d="M469.6,411.33c-4.6,0-8.34,3.74-8.34,8.34v21.12h21.51v-21.12c0-4.6-3.74-8.34-8.34-8.34h-4.83Z"/>
    <path class="st6" d="M615.55,411.33c-4.6,0-8.34,3.74-8.34,8.34v21.12h21.51v-21.12c0-4.6-3.74-8.34-8.34-8.34h-4.83Z"/>
    <path class="st6" d="M542.57,411.33c-4.6,0-8.34,3.74-8.34,8.34v21.12h21.51v-21.12c0-4.6-3.74-8.34-8.34-8.34h-4.83Z"/>
    <path class="st5" d="M495.74,523.86c1,.91,2.32,1.64,3.46,2.41v-2.06l-2.97-2.17c-.71-.88-1.22-2.06-.64-3.15l3.62-5.47v-12.45l-7.91,5.93c-1.79.55-3.44-.24-3.77-2.13-.28-1.58.43-1.6,1.2-2.75l10.1-9.34c.13,0,.26.02.38.03v-6.82h-12.99v46.58l7.61-11.21c.06,1.01,1.19,1.94,1.92,2.6Z"/>
    <path class="st5" d="M505.47,503.94c.8-.67,2.17.48,3.05.54.78-.59,1.05-1.23.03-1.71-.47-.22-3.15-1.13-5.33-1.82v6.38l2.24-3.39Z"/>
    <polygon class="st5" points="507.83 530.95 507.62 530.36 503.22 527.14 503.22 534.5 507.83 530.95"/>
    <path class="st5" d="M511.38,485.88h-8.16v7.27c2.76.42,5.48,1.06,8.16,1.87v-9.14Z"/>
    <path class="st5" d="M508.83,520.2c.75.73,1.63,1.44,2.55,2.14v-6.88l-3.33,3.59c-.05.49.45.83.78,1.15Z"/>
    <path class="st5" d="M526.83,513.75c2.06.22,4.28.19,6.39.3v-28.16h-2.93c2.65,3.14,2.64,8.34-1.66,11.01-1.65,1.03-3.37,1.33-4.95,1.09v10.94c.49,1.85,1.03,3.99,1.48,4.37.35.3,1.19.41,1.66.46Z"/>
    <path class="st5" d="M583.19,493c.35.04.72.1,1.08.15v-7.27h-12.99v14.75l6.84-6.61c1.54-1.74,2.99-1.28,5.07-1.03Z"/>
    <path class="st5" d="M589.74,504.53l.5-1.55-1.96-.62v1.75c.51.24,1.03.49,1.46.42Z"/>
    <path class="st5" d="M588.28,485.88v1.69c1.2-.1,2.3-.88,3.36-1.69h-3.36Z"/>
    <polygon class="st5" points="589.08 530.78 588.28 530.2 588.28 531.39 589.08 530.78"/>
    <path class="st5" d="M601.27,498.41v-1.71c-3-2.15-4.42-6.47-1.8-10.28-.96-.71-4.49,2.71-5.44,3.31-.52.33-1.16.79-1.74.95-1.27.35-2.73.13-4.01-.48v3.72c3.01.72,6.03,1.7,8.74,2.74.82.32,2.9,1.09,4.25,1.74Z"/>
    <path class="st5" d="M609.35,496.97c-1.36.81-2.75,1.14-4.05,1.1v12.99l.8,2.32c3.57.74,7.32.54,10.95.98.56.37.98.85,1.24,1.37v-29.86h-7.27c2.66,3.19,2.66,8.52-1.67,11.09Z"/>
    <rect class="st5" x="354.55" y="485.88" width="8.55" height="56.22"/>
    <rect class="st5" x="384.14" y="485.88" width="12.99" height="56.22"/>
    <rect class="st5" x="367.13" y="485.88" width="12.99" height="56.22"/>
    <polygon class="st3" points="526.6 260.05 527.13 257.37 521.78 257.37 329.24 371.65 468.71 371.65 526.76 260.05 526.6 260.05"/>
    <path class="st2" d="M503.22,527.14l-4.02-2.94v2.06c.46.31.89.63,1.26.96.16.15.48.31.41.58-.55.68-1.11,1.35-1.67,2.03v7.76l4.02-3.1v-7.36Z"/>
    <path class="st2" d="M503.22,507.33v-6.38c-1.49-.47-2.75-.84-2.92-.81l-1.1.82v12.45l4.02-6.08Z"/>
    <path class="st2" d="M535.86,519.52c-.81.14-1.71.18-2.64.19v18.95h4.02v-20.33c-.34.6-.84,1.09-1.38,1.19Z"/>
    <polygon class="st2" points="588.28 530.2 584.26 527.25 584.26 534.42 588.28 531.39 588.28 530.2"/>
    <path class="st2" d="M588.28,504.11v-1.75l-4.02-1.28v6.18l2.22-3.32c.45-.45,1.12-.14,1.8.18Z"/>
    <path class="st2" d="M399.87,541.55c.42-.18.85-.36,1.28-.54v-55.13h12.99v51.09c1.32-.29,2.66-.55,4.02-.77v-50.32h12.65v49.07c1.23-.04,2.47-.07,3.72-.07,2.92,0,5.78.12,8.59.36v-49.36h5.04v49.93c1.35.19,2.7.41,4.02.65v-50.58h12.99v54.11c.97.35,1.93.72,2.88,1.11.38.16.76.33,1.14.49v-55.71h12.99v52.5l4.02-5.92v-46.58h12.99v6.82c1.34.1,2.69.25,4.02.46v-7.27h8.16v9.14c1.63.49,3.24,1.04,4.82,1.65.88.34,4.87,1.94,5.33,2.37.69.64,1.3,3.73.79,4.62l-10.94,11.8v6.88c1.45,1.11,2.99,2.22,4.28,3.35,1.39,1.22,3.4,2.53,3.57,4.51.23,2.64-.92,4.24-3.03,5.65-1.32.88-2.89,1.84-4.55,2.81h12.04v-18.61c-.88.04-1.77.06-2.65.07-.93-.13-1.47-1-1.92-1.73-.4-.65-2.81-5.47-2.78-5.86.05-.92,5.26-5.72,6.06-6.84.26.18.36.39.49.66.23.47.51,1.48.8,2.59v-10.94c-4.79-.71-8.33-6.35-5.13-11.36.99-1.55,3.01-2.97,4.85-3.24,2.97-.43,5.36.69,6.88,2.49h2.93v28.16c.44.02.87.05,1.3.09,1.14.11,2.15.39,2.72,1.22v-29.48h12.99v52.77h4.02v-52.77h12.99v46.41l4.02-5.97v-19.24c-1.97.09-3.35-1.79-2.75-3.8l2.75-2.66v-14.75h12.99v7.27c1.32.2,2.67.46,4.02.78v-3.72c-1.41-.67-2.6-1.82-3.05-3.21.87.13,1.91.59,2.79.59.09,0,.17,0,.26-.02v-1.69h3.36c.7-.54,1.38-1.08,2.07-1.46,1.98-1.09,3.71-1.43,5.95-.78.41.12,1.67.84,1.8.83.3-.03,1.39-.71,2.02-.87,3.26-.82,5.9.32,7.54,2.29h7.27v29.86c.36.73.39,1.56,0,2.36v20.55h4.02v-52.77h11.15v52.77h12.31v-52.77h6.54v52.77h4.02v-52.77h12.99v52.77h4.02v-52.77h12.99v52.77h4.02v-52.77h12.99v52.77h4.02v-52.77h12.99v52.77h4.02v-52.77h5.51v52.77h14.44v-52.77h6.43v-16.87h-416.16v16.87h7.64v56.22h-1.53c.43.1.84.2,1.22.3,11.88,3.09,21.35,8.61,28.17,16.4.38.43.75.87,1.11,1.31h4.1c6.36-7.98,14.61-14.23,24.56-18.57ZM384.14,485.88h12.99v56.22h-12.99v-56.22ZM363.11,542.11h-8.55v-56.22h8.55v56.22ZM367.13,542.11v-56.22h12.99v56.22h-12.99Z"/>
    <path class="st2" d="M601.29,519.92s-.01-.01-.02-.02v18.75h4.02v-18.69c-1.32.13-3.23.39-4-.04Z"/>
    <path class="st2" d="M605.29,511.07v-12.99c-1.48-.04-2.87-.54-4.02-1.37v1.71c.49.23.89.45,1.09.62.67.57,1.52,3.7.94,4.59-.67.76-1.34,1.5-2.03,2.24v2.15l2.15-2.35,1.87,5.39Z"/>
    <path class="st2" d="M470.38,542.11c.82.37,1.63.77,2.44,1.17l-.18-1.17h-2.26Z"/>
    <path class="st2" d="M521.78,257.37h5.35l-.53,2.68h.16l-58.05,111.6h281.22l-179.18-114.3h-12.52l-5.78-29.42h8.36l-4.48-14.67c-4.58-14.97-8.06-30.42-10.42-46.15l-2.79-18.6c2.49-.22,4.45-2.29,4.45-4.84,0-2.7-2.18-4.88-4.88-4.88s-4.88,2.19-4.88,4.88c0,2.29,1.58,4.2,3.71,4.72l-2.63,18.7c-2.23,15.88-5.61,31.47-10.1,46.61l-4.22,14.23h8.36l-5.78,29.42h-5.35l-192.54,114.3h0l192.54-114.27Z"/>
    <path class="st2" d="M665.3,460.8v-80.95h-240.63v80.95h16.56v-41.14c0-15.66,12.7-28.36,28.36-28.36h4.83c15.66,0,28.36,12.7,28.36,28.36v41.14h11.42v-41.14c0-15.66,12.7-28.36,28.36-28.36h4.83c15.66,0,28.36,12.7,28.36,28.36v41.14h11.42v-41.14c0-15.66,12.7-28.36,28.36-28.36h4.83c15.66,0,28.36,12.7,28.36,28.36v41.14h16.56Z"/>
    <path class="st5" d="M313.3,591.04c-1.85-1.07-5.33-1.61-10.44-1.61v118.24c6.73,0,10.88-1.35,12.43-4.05,1.55-2.7,2.33-10.05,2.33-22.04v-69.83c0-8.14-.26-13.36-.78-15.65-.52-2.29-1.7-3.98-3.55-5.05Z"/>
    <path class="st5" d="M766.26,589.43v39.97c5.25,0,8.94-.72,11.05-2.17,2.11-1.44,3.16-6.12,3.16-14.04v-9.88c0-5.7-1.02-9.44-3.05-11.21-2.04-1.78-5.76-2.66-11.16-2.66Z"/>
    <path class="st5" d="M427.4,597.17c-.13,2.19-.2,4.75-.2,7.69v83.93c0,10.44.43,16.88,1.28,19.32.85,2.44,2.83,3.66,5.94,3.66s5.22-1.41,6.11-4.22c.89-2.81,1.33-9.51,1.33-20.09v-82.6c0-2.94-.06-5.49-.17-7.69h-14.29Z"/>
    <g>
      <path class="st0" d="M399.87,541.55c.42-.18.85-.36,1.28-.54v-55.13h12.99v51.09c1.32-.29,2.66-.55,4.02-.77v-50.32h12.65v49.07c1.23-.04,2.47-.07,3.72-.07,2.92,0,5.78.12,8.59.36v-49.36h5.04v49.93c1.35.19,2.7.41,4.02.65v-50.58h12.99v54.11c.97.35,1.93.72,2.88,1.11.38.16.76.33,1.14.49v-55.71h12.99v52.5l-4.13,6.08c-1.39,2.9,2.99,5.46,5.18,3.83,1.5-1.11,4.28-4.67,5.68-6.26,3.51-3.99,6.91-8.1,10.28-12.21v7.76l-2.77,2.14c-.49,1.56-.07,3.47,1.37,4.39,1.75,1.12,2.51.52,4.11-.25,2.82-1.37,6.47-3.31,9.74-5.22h12.04v-18.61c2.01-.08,4.03-.23,6.02-.32,1.08-.05,2.31,0,3.51-.02v18.95h4.02v-20.33c.33-.58.52-1.26.45-1.77-.07-.49-.23-.88-.45-1.2v-29.48h12.99v52.77h4.02v-52.77h12.99v46.41l-8.42,12.5c-.94,2.45,2.82,4.83,4.96,3.81,6.38-6.62,12.19-13.75,18.1-20.78.1-.4-2.92-2.15-3.45-2.55-1.46-1.09-2.94-2.22-3.88-3.81l-3.28,4.87v-19.24c.28-.01.58-.07.88-.16l9.16-6.79,2.94.94v6.18l-7.66,11.44c-.55,1.32-.25,2.78.93,3.63l6.73,4.93v7.17l-6.86,5.18c-1.01,2.63.96,5.46,3.85,5.1,5.89-3.23,11.89-6.35,17.53-9.99,1.14-1.53,1.88-3.49,1.17-5.37-.66-1.76-4.56-4.63-6.16-5.96-1.29-1.07-3.46-2.44-4.52-3.56-.16-.17-.39-.31-.39-.58,0-.15,1.57-1.93,1.83-2.22,3.44-3.78,7.09-7.39,10.56-11.16v2.15l-4.11,4.49.15.61c1.24,1.45,2.44,5.88,3.96,6.78v18.75h4.02v-18.69c.31-.03.59-.06.81-.06,2.81-.08,5.67-.02,8.47-.19.49-.03,2.15-.14,2.46-.23.22-.07.75-.62.9-.83.14-.18.25-.37.34-.55v20.55h4.02v-52.77h11.15v52.77h12.31v-52.77h6.54v52.77h4.02v-52.77h12.99v52.77h4.02v-52.77h12.99v52.77h4.02v-52.77h12.99v52.77h4.02v-52.77h12.99v52.77h4.02v-52.77h5.51v52.77h14.44v-52.77h6.43v-16.87h-416.16v16.87h7.64v56.22h-1.53c.43.1.84.2,1.22.3,11.88,3.09,21.35,8.61,28.17,16.4.38.43.75.87,1.11,1.31h4.1c6.36-7.98,14.61-14.23,24.56-18.57Z"/>
      <polygon class="st0" points="568 891.95 568 863.36 561.96 863.36 561.96 874.57 550.64 874.57 550.64 863.36 544.58 863.36 544.58 891.95 550.64 891.95 550.64 879.61 561.96 879.61 561.96 891.95 568 891.95"/>
      <path class="st0" d="M295.2,758.44h-11.18c3.81,5.07,8.31,9.68,13.44,13.71l54,42.4v-10.91l-48.7-38.24c-2.73-2.14-5.25-4.47-7.56-6.96Z"/>
      <path class="st0" d="M567.87,558.68l-3.25,33.42c-.17,1.68-.34,3.37-.51,5.07-2.53,25.64-4.92,54.7-7.18,87.18-1.79-25-4.45-54.06-7.98-87.18-1.31-12.28-2.74-25.11-4.29-38.5h-49.29l5.78,38.5,21.22,141.24h28.6c1.11-.07,2.23-.12,3.37-.12,1.26,0,2.49.04,3.71.12h35.31l18.69-141.24,5.09-38.5h-49.29Z"/>
      <path class="st0" d="M576.47,790.71v-6.74c0-6.62-.56-11.5-1.67-14.64-1.11-3.14-3.43-5.76-6.97-7.86-3.54-2.1-8.02-3.15-13.46-3.15-4,0-7.55.68-10.63,2.04-3.08,1.36-5.49,3.22-7.23,5.59-1.74,2.37-2.78,4.83-3.13,7.39-.35,2.56-.53,6.39-.53,11.51v20.73c0,6.95.57,12.16,1.71,15.63,1.14,3.46,3.46,6.17,6.97,8.13,3.51,1.96,7.96,2.94,13.37,2.94s9.58-1.16,13.13-3.47c3.55-2.31,5.84-5,6.88-8.08,1.04-3.07,1.56-8.28,1.56-15.63v-2.77h-18.45v8.92c0,3.9-.21,6.37-.64,7.43-.42,1.05-1.32,1.58-2.7,1.58s-2.35-.53-2.76-1.58c-.41-1.05-.61-3.3-.61-6.75v-32.96c0-3.59.2-5.93.61-7.01.41-1.08,1.37-1.62,2.89-1.62,1.34,0,2.21.45,2.61,1.33.39.89.59,3.13.59,6.71v12.33h18.45Z"/>
      <polygon class="st0" points="582.4 874.16 577.14 871.74 579.56 877 577.14 882.26 582.4 879.84 587.67 882.26 585.25 877 587.67 871.74 582.4 874.16"/>
      <polygon class="st0" points="612.77 816.57 601.54 816.57 601.54 759.81 583.09 759.81 583.09 830.77 612.77 830.77 612.77 816.57"/>
      <path class="st0" d="M362.82,587.82c-1.04-5.81-3.63-11.08-7.77-15.82-4.15-4.74-10.2-8.14-18.15-10.21-7.96-2.07-23.22-3.11-45.8-3.11h-34.97v179.74h58.95c11.17,0,19.54-.61,25.09-1.83,5.55-1.22,10.21-3.37,13.99-6.44,3.42-2.79,5.91-6.56,7.48-11.29.16-.49.32-.97.46-1.48,1.52-5.44,2.28-16.23,2.28-32.36v-62.95c0-10.39-.19-18.68-.58-24.89-.25-3.97-.57-7.09-.97-9.36Z"/>
      <path class="st0" d="M802.05,438.62v103.14c2.97.67,5.83,1.59,8.58,2.75v-105.89c0-28.75-16.6-53.68-40.72-65.74-.09,1.46-.34,2.93-.76,4.37-.41,1.42-.98,2.76-1.67,4.02,20.54,10.9,34.57,32.52,34.57,57.35Z"/>
      <path class="st0" d="M468.71,371.65h281.22l-179.18-114.3h-12.52l-5.78-29.42h8.36l-4.48-14.67c-4.58-14.97-8.06-30.42-10.42-46.15l-2.79-18.6c2.49-.22,4.45-2.29,4.45-4.84,0-2.7-2.18-4.88-4.88-4.88s-4.88,2.19-4.88,4.88c0,2.29,1.58,4.2,3.71,4.72l-2.63,18.7c-2.23,15.88-5.61,31.47-10.1,46.61l-4.22,14.23h8.36l-5.78,29.42h-5.35l-192.54,114.3h139.47Z"/>
      <path class="st0" d="M665.3,460.8v-80.95h-240.63v80.95h16.56v-41.14c0-15.66,12.7-28.36,28.36-28.36h4.83c15.66,0,28.36,12.7,28.36,28.36v41.14h11.42v-41.14c0-15.66,12.7-28.36,28.36-28.36h4.83c15.66,0,28.36,12.7,28.36,28.36v41.14h11.42v-41.14c0-15.66,12.7-28.36,28.36-28.36h4.83c15.66,0,28.36,12.7,28.36,28.36v41.14h16.56Z"/>
      <path class="st0" d="M542.57,411.33c-4.6,0-8.34,3.74-8.34,8.34v21.12h21.51v-21.12c0-4.6-3.74-8.34-8.34-8.34h-4.83Z"/>
      <path class="st0" d="M469.6,411.33c-4.6,0-8.34,3.74-8.34,8.34v21.12h21.51v-21.12c0-4.6-3.74-8.34-8.34-8.34h-4.83Z"/>
      <path class="st0" d="M277.96,438.62c0-24.57,13.73-46,33.93-57.01-.1-.17-.2-.35-.29-.53-.03-.06-.06-.12-.1-.18-.04-.07-.08-.15-.11-.22-.02-.05-.04-.09-.07-.14-.08-.15-.15-.31-.23-.47-.05-.1-.09-.2-.13-.3-.03-.08-.07-.15-.1-.23-.03-.07-.06-.14-.09-.21-.01-.03-.02-.05-.03-.08-.07-.18-.14-.36-.21-.55-.03-.08-.06-.17-.1-.26-.04-.1-.08-.2-.11-.3,0-.02-.02-.05-.02-.08-.03-.09-.06-.18-.09-.27-.01-.04-.03-.09-.04-.14-.07-.23-.14-.45-.2-.68-.03-.11-.06-.22-.09-.33-.08-.3-.15-.6-.21-.9-.02-.1-.04-.2-.06-.3-.08-.39-.14-.78-.19-1.17,0-.06-.01-.11-.02-.17-.02-.13-.03-.25-.04-.38,0-.04-.01-.09-.01-.13-.01-.12-.02-.23-.03-.35-23.68,12.21-39.91,36.91-39.91,65.34v100.03h8.58v-100.03Z"/>
      <path class="st0" d="M615.55,411.33c-4.6,0-8.34,3.74-8.34,8.34v21.12h21.51v-21.12c0-4.6-3.74-8.34-8.34-8.34h-4.83Z"/>
      <path class="st0" d="M620.26,824.68c1.61,2.25,4.03,4.08,7.28,5.48s6.98,2.1,11.22,2.1c3.83,0,7.15-.59,9.97-1.78,2.82-1.18,5.09-2.92,6.82-5.22,1.72-2.29,2.76-4.53,3.11-6.71.35-2.18.53-5.95.53-11.33v-47.43h-18.45v52.29c0,3.54-.17,5.78-.5,6.73-.34.95-1.09,1.42-2.26,1.42-1.02,0-1.7-.43-2.04-1.29-.34-.86-.5-2.84-.5-5.94v-53.21h-18.45v41.99c0,8.01.15,13.26.44,15.76.29,2.5,1.24,4.87,2.85,7.12Z"/>
      <path class="st0" d="M698.33,792.44c3.83-.88,6.39-2.13,7.69-3.77,1.3-1.64,1.95-4.53,1.95-8.67,0-6.13-.92-10.58-2.76-13.34-1.84-2.76-4.26-4.59-7.25-5.5-3-.91-7.4-1.36-13.22-1.36h-18.41v70.96h21.35c7.42,0,12.33-.42,14.73-1.27,2.4-.85,4.14-2.43,5.24-4.74,1.1-2.31,1.64-5.86,1.64-10.66v-6.58c0-4.62-.76-8.05-2.28-10.28-1.52-2.24-4.41-3.84-8.68-4.8Z"/>
      <path class="st0" d="M776.74,765.37l-47.73,36.74c.17,1.73.27,3.53.27,5.41v5.2l52.7-40.56c5.16-3.97,9.72-8.61,13.61-13.73h-11.21c-2.34,2.5-4.89,4.82-7.63,6.93Z"/>
      <path class="st0" d="M412.71,830.77v-18.72c0-5.73-.15-9.23-.46-10.5-.31-1.27-1.09-2.67-2.35-4.19-1.26-1.52-3.71-2.73-7.36-3.64,4.03-.38,6.74-1.52,8.11-3.42,1.37-1.9,2.06-5.61,2.06-11.13,0-6.05-.97-10.45-2.92-13.22-1.94-2.76-4.46-4.48-7.54-5.15-3.08-.67-8.98-1.01-17.69-1.01h-13.06v70.96h18.45v-32c2.54,0,4.11.45,4.71,1.36.6.91.9,3.26.9,7.06v23.58h17.14Z"/>
      <path class="st0" d="M665.78,850.78l-88.44,68.08c-11.68,8.99-25.63,13.48-39.57,13.48-14.15,0-28.3-4.63-40.07-13.86l-86.19-67.68h-13.89l94.78,74.43c13.32,10.46,29.34,15.7,45.37,15.7s31.58-5.08,44.81-15.26l97.26-74.86h-13.53c-.17,0-.35,0-.52-.01Z"/>
      <path class="st0" d="M818.66,635.95c3.48-4.81,5.22-14.21,5.22-28.2,0-15.32-2.46-26.48-7.38-33.47-4.92-6.99-11.29-11.34-19.1-13.04-7.81-1.7-22.74-2.55-44.8-2.55h-33.08v179.74h46.74v-81.04c6.44,0,10.42,1.15,11.93,3.44,1.52,2.29,2.28,8.25,2.28,17.87v59.73h43.41v-47.41c0-14.51-.39-23.37-1.17-26.59-.78-3.22-2.76-6.75-5.94-10.6-3.18-3.85-9.4-6.92-18.65-9.21,10.21-.96,17.06-3.85,20.54-8.66Z"/>
      <path class="st0" d="M529.68,891.95h7.7v-28.58h-5.46v13.53c.03.87.06,1.75.09,2.62.03.87.07,1.75.11,2.62.04.87.07,1.75.1,2.64h-.14l-12.41-21.41h-7.64v28.58h5.42v-13.45c-.04-.91-.08-1.82-.12-2.73-.04-.91-.08-1.81-.12-2.73-.04-.91-.08-1.82-.14-2.72h.18l12.43,21.62Z"/>
      <path class="st0" d="M470.38,542.11c.82.37,1.63.77,2.44,1.17l-.18-1.17h-2.26Z"/>
      <path class="st0" d="M419.6,759.81v41.99c0,8.01.15,13.26.44,15.76.29,2.5,1.24,4.87,2.85,7.12,1.61,2.25,4.03,4.08,7.28,5.48s6.98,2.1,11.22,2.1c3.83,0,7.15-.59,9.97-1.78,2.82-1.18,5.09-2.92,6.82-5.22,1.72-2.29,2.76-4.53,3.11-6.71.35-2.18.53-5.95.53-11.33v-47.43h-18.45v52.29c0,3.54-.17,5.78-.5,6.73-.34.95-1.09,1.42-2.26,1.42-1.02,0-1.7-.43-2.04-1.29-.34-.86-.5-2.84-.5-5.94v-53.21h-18.45Z"/>
      <polygon class="st0" points="706.09 702.45 671.78 702.45 671.78 662.92 700.98 662.92 700.98 628.73 671.78 628.73 671.78 597.17 671.78 594.65 702.98 594.65 702.98 558.68 625.04 558.68 625.04 597.17 625.04 738.42 706.09 738.42 706.09 702.45"/>
      <path class="st0" d="M479.33,722.87c4.48-6.22,7.14-13.08,7.99-20.59.85-7.51,1.28-20.3,1.28-38.36v-30.75c0-16.31-.35-28.31-1.04-36-.09-1.03-.19-1.99-.3-2.86-.89-7.4-3.66-14.25-8.33-20.54-4.66-6.29-10.82-11.01-18.48-14.15-7.66-3.15-16.3-4.72-25.92-4.72-10.14,0-19.02,1.67-26.64,5-7.62,3.33-13.67,8.1-18.15,14.32-4.48,6.22-7.14,13.08-7.99,20.59-.08.73-.16,1.53-.24,2.36-.69,7.71-1.04,19.7-1.04,36v30.75c0,18.5.44,31.46,1.33,38.86.89,7.4,3.66,14.25,8.33,20.54,4.66,6.29,10.82,11.01,18.48,14.15,2.49,1.02,5.09,1.88,7.79,2.57,1.03-.16,2.09-.25,3.17-.25h18.45c.9,0,1.78.06,2.65.17.87-.11,1.75-.17,2.65-.17h10.49c2.57-.71,5.03-1.57,7.37-2.59,7.62-3.33,13.67-8.1,18.15-14.32ZM427.4,597.17c.28-4.72.86-7.73,1.75-9.02,1.29-1.89,3.16-2.83,5.61-2.83,2.89,0,4.79,1.17,5.72,3.5.6,1.51,1,4.3,1.22,8.36h-14.29Z"/>
      <polygon class="st0" points="497.6 874.16 492.34 871.74 494.75 877 492.34 882.26 497.6 879.84 502.86 882.26 500.44 877 502.86 871.74 497.6 874.16"/>
      <polygon class="st0" points="510.15 759.81 494.73 759.81 494.73 791.76 484.38 759.81 468.95 759.81 468.95 830.77 484.38 830.77 484.38 798.51 493.98 830.77 510.15 830.77 510.15 759.81"/>
      <path class="st5" d="M434.76,585.32c-2.44,0-4.31.94-5.61,2.83-.89,1.29-1.47,4.3-1.75,9.02h14.29c-.21-4.05-.62-6.84-1.22-8.36-.93-2.33-2.83-3.5-5.72-3.5Z"/>
      <path class="st5" d="M835.96,646.09c5.47-8.53,7.93-20.48,7.93-38.34,0-19.73-3.61-34.44-11.03-45-.62-.88-1.27-1.74-1.93-2.57v-121.55c0-48.79-37.47-89-85.14-93.37l-164.27-104.79c-1.19-.76-2.46-1.39-3.77-1.88,3.09-4.9,3.91-10.93,2.2-16.51l-4.48-14.67c-4.28-13.99-7.56-28.55-9.77-43.27l-1.25-8.31c2-3.59,3.13-7.74,3.13-12.16,0-13.73-11.17-24.9-24.9-24.9s-24.9,11.17-24.9,24.9c0,3.97.93,7.75,2.61,11.12l-1.34,9.52c-2.09,14.86-5.28,29.56-9.47,43.7l-4.22,14.23c-1.8,6.06-.63,12.61,3.15,17.67.35.48.73.93,1.12,1.37l-175.12,103.96c-47.82,4.22-85.45,44.49-85.45,93.39v100.03h-12.97v219.78h23.98c6.11,11.46,14.64,21.67,24.85,29.68l72.67,57.06c.98.94,2.05,1.78,3.2,2.51l119.06,93.49c17,13.35,37.45,20.04,57.91,20.04s40.31-6.49,57.19-19.48l199.4-153.48c10.4-8.01,19.1-18.27,25.34-29.82h24.2v-67.42c0-20.04-.69-27-1.72-31.29-1.11-4.59-3.15-9.09-6.21-13.64ZM769.15,377.25c.42-1.45.67-2.91.76-4.37,24.12,12.06,40.72,37,40.72,65.74v105.89c-2.75-1.16-5.61-2.08-8.58-2.75v-103.14c0-24.83-14.02-46.45-34.57-57.35.69-1.26,1.25-2.6,1.67-4.02ZM521.78,257.35h5.35l5.78-29.42h-8.36l4.22-14.23c4.49-15.13,7.87-30.73,10.1-46.61l2.63-18.7c-2.13-.53-3.71-2.43-3.71-4.72,0-2.7,2.18-4.88,4.88-4.88s4.88,2.19,4.88,4.88c0,2.55-1.96,4.62-4.45,4.84l2.79,18.6c2.36,15.74,5.85,31.18,10.42,46.15l4.48,14.67h-8.36l5.78,29.42h12.52l179.18,114.3h-420.69l192.54-114.3ZM620.38,391.31h-4.83c-15.66,0-28.36,12.7-28.36,28.36v41.14h-11.42v-41.14c0-15.66-12.7-28.36-28.36-28.36h-4.83c-15.66,0-28.36,12.7-28.36,28.36v41.14h-11.42v-41.14c0-15.66-12.7-28.36-28.36-28.36h-4.83c-15.66,0-28.36,12.7-28.36,28.36v41.14h-16.56v-80.95h240.63v80.95h-16.56v-41.14c0-15.66-12.7-28.36-28.36-28.36ZM628.72,419.66v21.12h-21.51v-21.12c0-4.6,3.74-8.34,8.34-8.34h4.83c4.6,0,8.34,3.74,8.34,8.34ZM555.74,419.66v21.12h-21.51v-21.12c0-4.6,3.74-8.34,8.34-8.34h4.83c4.6,0,8.34,3.74,8.34,8.34ZM482.77,419.66v21.12h-21.51v-21.12c0-4.6,3.74-8.34,8.34-8.34h4.83c4.6,0,8.34,3.74,8.34,8.34ZM269.38,438.62c0-28.43,16.23-53.13,39.91-65.34,0,.12.02.23.03.35,0,.04,0,.09.01.13.01.13.03.25.04.38,0,.06.01.11.02.17.05.39.12.78.19,1.17.02.1.04.2.06.3.06.3.13.6.21.9.03.11.06.22.09.33.06.23.13.45.2.68.01.05.03.09.04.14.03.09.05.18.09.27,0,.03.02.05.02.08.04.1.08.2.11.3.03.09.06.17.1.26.07.18.14.37.21.55.01.03.02.05.03.08.03.07.06.14.09.21.03.08.07.16.1.23.04.1.09.2.13.3.07.16.15.31.23.47.02.05.04.09.07.14.04.07.08.15.11.22.03.06.06.12.1.18.09.18.19.35.29.53-20.19,11.01-33.93,32.43-33.93,57.01v100.03h-8.58v-100.03ZM351.47,814.55l-54-42.4c-5.13-4.03-9.63-8.65-13.44-13.71h11.18c2.31,2.49,4.84,4.82,7.56,6.96l48.7,38.24v10.91ZM364.37,685.02c0,16.14-.76,26.92-2.28,32.36-.14.51-.3.99-.46,1.48-1.57,4.73-4.05,8.51-7.48,11.29-3.77,3.07-8.44,5.22-13.99,6.44-5.55,1.22-13.92,1.83-25.09,1.83h-58.95v-179.74h34.97c22.57,0,37.84,1.04,45.8,3.11,7.96,2.07,14.01,5.48,18.15,10.21,4.14,4.74,6.73,10.01,7.77,15.82.4,2.27.73,5.39.97,9.36.39,6.21.58,14.51.58,24.89v62.95ZM370.1,558.81c-6.82-7.79-16.29-13.31-28.17-16.4-.38-.1-.79-.2-1.22-.3h1.53v-56.22h-7.64v-16.87h416.16v16.87h-6.43v52.77h-14.44v-52.77h-5.51v52.77h-4.02v-52.77h-12.99v52.77h-4.02v-52.77h-12.99v52.77h-4.02v-52.77h-12.99v52.77h-4.02v-52.77h-12.99v52.77h-4.02v-52.77h-6.54v52.77h-12.31v-52.77h-11.15v52.77h-4.02v-20.55c-.09.19-.2.37-.34.55-.16.21-.68.76-.9.83-.31.09-1.97.2-2.46.23-2.8.16-5.67.11-8.47.19-.22,0-.5.03-.81.06v18.69h-4.02v-18.75c-1.52-.91-2.72-5.33-3.96-6.78l-.15-.61,4.11-4.49v-2.15c-3.47,3.76-7.11,7.37-10.56,11.16-.26.29-1.83,2.07-1.83,2.22,0,.28.22.41.39.58,1.07,1.12,3.24,2.49,4.52,3.56,1.6,1.33,5.5,4.21,6.16,5.96.71,1.87-.03,3.84-1.17,5.37-5.64,3.63-11.64,6.75-17.53,9.99-2.88.36-4.86-2.47-3.85-5.1l6.86-5.18v-7.17l-6.73-4.93c-1.18-.85-1.48-2.31-.93-3.63l7.66-11.44v-6.18l-2.94-.94-9.16,6.79c-.3.1-.6.15-.88.16v19.24l3.28-4.87c.95,1.59,2.43,2.72,3.88,3.81.53.4,3.55,2.15,3.45,2.55-5.91,7.03-11.72,14.17-18.1,20.78-2.14,1.02-5.9-1.35-4.96-3.81l8.42-12.5v-46.41h-12.99v52.77h-4.02v-52.77h-12.99v29.48c.22.31.38.7.45,1.2.07.51-.11,1.19-.45,1.77v20.33h-4.02v-18.95c-1.2,0-2.43-.04-3.51.02-1.99.1-4.01.24-6.02.32v18.61h-12.04c-3.28,1.91-6.92,3.84-9.74,5.22-1.6.78-2.36,1.37-4.11.25-1.44-.92-1.86-2.83-1.37-4.39l2.77-2.14v-7.76c-3.38,4.11-6.77,8.22-10.28,12.21-1.4,1.58-4.18,5.15-5.68,6.26-2.19,1.62-6.57-.93-5.18-3.83l4.13-6.08v-52.5h-12.99v55.71c-.38-.16-.76-.33-1.14-.49-.95-.39-1.91-.75-2.88-1.11v-54.11h-12.99v50.58c-1.33-.25-2.67-.46-4.02-.65v-49.93h-5.04v49.36c-2.81-.24-5.67-.36-8.59-.36-1.25,0-2.49.03-3.72.07v-49.07h-12.65v50.32c-1.36.23-2.7.49-4.02.77v-51.09h-12.99v55.13c-.43.18-.86.35-1.28.54-9.95,4.35-18.19,10.59-24.56,18.57h-4.1c-.36-.44-.73-.88-1.11-1.31ZM587.67,882.26l-5.26-2.42-5.26,2.42,2.42-5.26-2.42-5.26,5.26,2.42,5.26-2.42-2.42,5.26,2.42,5.26ZM583.09,830.77v-70.96h18.45v56.76h11.22v14.2h-29.67ZM612.07,597.17l-18.69,141.24h-35.31c-1.21-.08-2.45-.12-3.71-.12-1.14,0-2.26.05-3.37.12h-28.6l-21.22-141.24-5.78-38.5h49.29c1.55,13.39,2.98,26.22,4.29,38.5,3.53,33.11,6.19,62.18,7.98,87.18,2.26-32.48,4.66-61.53,7.18-87.18.17-1.71.34-3.4.51-5.07l3.25-33.42h49.29l-5.09,38.5ZM557.43,771.66c-.39-.89-1.26-1.33-2.61-1.33-1.52,0-2.48.54-2.89,1.62-.41,1.08-.61,3.42-.61,7.01v32.96c0,3.45.2,5.7.61,6.75.41,1.05,1.33,1.58,2.76,1.58s2.27-.53,2.7-1.58c.42-1.05.64-3.53.64-7.43v-8.92h18.45v2.77c0,7.35-.52,12.55-1.56,15.63-1.04,3.07-3.33,5.77-6.88,8.08-3.55,2.31-7.93,3.47-13.13,3.47s-9.86-.98-13.37-2.94c-3.51-1.96-5.83-4.67-6.97-8.13-1.14-3.46-1.71-8.67-1.71-15.63v-20.73c0-5.11.18-8.95.53-11.51.35-2.56,1.39-5.02,3.13-7.39,1.74-2.37,4.15-4.23,7.23-5.59,3.08-1.36,6.63-2.04,10.63-2.04,5.44,0,9.92,1.05,13.46,3.15,3.54,2.1,5.86,4.72,6.97,7.86,1.11,3.14,1.67,8.02,1.67,14.64v6.74h-18.45v-12.33c0-3.59-.2-5.82-.59-6.71ZM550.64,879.61v12.34h-6.06v-28.58h6.06v11.2h11.32v-11.2h6.04v28.58h-6.04v-12.34h-11.32ZM517.21,873.04c.04.91.08,1.82.12,2.73.04.91.08,1.82.12,2.73v13.45h-5.42v-28.58h7.64l12.41,21.41h.14c-.03-.89-.06-1.77-.1-2.64-.04-.87-.07-1.75-.11-2.62-.03-.87-.06-1.75-.09-2.62v-13.53h5.46v28.58h-7.7l-12.43-21.62h-.18c.05.9.1,1.81.14,2.72ZM502.86,882.26l-5.26-2.42-5.26,2.42,2.42-5.26-2.42-5.26,5.26,2.42,5.26-2.42-2.42,5.26,2.42,5.26ZM493.98,830.77l-9.6-32.26v32.26h-15.43v-70.96h15.43l10.34,31.95v-31.95h15.43v70.96h-16.17ZM438.55,818.96c.34.86,1.01,1.29,2.04,1.29,1.17,0,1.92-.47,2.26-1.42.34-.95.5-3.19.5-6.73v-52.29h18.45v47.43c0,5.38-.18,9.15-.53,11.33-.35,2.18-1.39,4.41-3.11,6.71-1.72,2.29-4,4.03-6.82,5.22-2.82,1.18-6.14,1.78-9.97,1.78-4.24,0-7.98-.7-11.22-2.1s-5.67-3.23-7.28-5.48c-1.61-2.25-2.56-4.62-2.85-7.12-.29-2.5-.44-7.75-.44-15.76v-41.99h18.45v53.21c0,3.1.17,5.08.5,5.94ZM461.18,737.2c-2.34,1.02-4.79,1.88-7.37,2.59h-10.49c-.9,0-1.78.06-2.65.17-.87-.11-1.75-.17-2.65-.17h-18.45c-1.08,0-2.14.09-3.17.25-2.7-.69-5.3-1.54-7.79-2.57-7.66-3.14-13.82-7.86-18.48-14.15-4.66-6.29-7.44-13.14-8.33-20.54-.89-7.4-1.33-20.35-1.33-38.86v-30.75c0-16.3.35-28.29,1.04-36,.07-.83.15-1.63.24-2.36.85-7.51,3.51-14.38,7.99-20.59,4.48-6.22,10.53-10.99,18.15-14.32,7.62-3.33,16.5-5,26.64-5,9.62,0,18.26,1.57,25.92,4.72,7.66,3.15,13.82,7.86,18.48,14.15,4.66,6.29,7.44,13.14,8.33,20.54.1.87.2,1.83.3,2.86.69,7.68,1.04,19.68,1.04,36v30.75c0,18.06-.43,30.85-1.28,38.36-.85,7.51-3.52,14.38-7.99,20.59-4.48,6.22-10.53,10.99-18.15,14.32ZM470.38,542.11h2.26l.18,1.17c-.8-.4-1.61-.79-2.44-1.17ZM616.97,759.81h18.45v53.21c0,3.1.17,5.08.5,5.94.34.86,1.01,1.29,2.04,1.29,1.17,0,1.92-.47,2.26-1.42.34-.95.5-3.19.5-6.73v-52.29h18.45v47.43c0,5.38-.18,9.15-.53,11.33-.35,2.18-1.39,4.41-3.11,6.71-1.72,2.29-4,4.03-6.82,5.22-2.82,1.18-6.14,1.78-9.97,1.78-4.24,0-7.98-.7-11.22-2.1s-5.67-3.23-7.28-5.48c-1.61-2.25-2.56-4.62-2.85-7.12-.29-2.5-.44-7.75-.44-15.76v-41.99ZM625.04,738.42v-179.74h77.94v35.97h-31.2v34.08h29.2v34.19h-29.2v39.52h34.3v35.97h-81.04ZM394.68,800.13c-.6-.91-2.17-1.36-4.71-1.36v32h-18.45v-70.96h13.06c8.71,0,14.6.34,17.69,1.01,3.08.67,5.6,2.39,7.54,5.15,1.94,2.76,2.92,7.17,2.92,13.22,0,5.52-.69,9.23-2.06,11.13-1.37,1.9-4.08,3.04-8.11,3.42,3.65.91,6.11,2.12,7.36,3.64,1.26,1.52,2.04,2.91,2.35,4.19.31,1.27.46,4.77.46,10.5v18.72h-17.14v-23.58c0-3.8-.3-6.15-.9-7.06ZM582.58,925.65c-13.22,10.18-29.02,15.26-44.81,15.26s-32.05-5.24-45.37-15.7l-94.78-74.43h13.89l86.19,67.68c11.76,9.24,25.92,13.86,40.07,13.86,13.95,0,27.89-4.49,39.57-13.48l88.44-68.08c.17,0,.35.01.52.01h13.53l-97.26,74.86ZM709.28,814.11c0,4.8-.55,8.35-1.64,10.66-1.1,2.31-2.84,3.89-5.24,4.74-2.4.85-7.31,1.27-14.73,1.27h-21.35v-70.96h18.41c5.81,0,10.22.45,13.22,1.36,2.99.91,5.41,2.74,7.25,5.5,1.84,2.76,2.76,7.21,2.76,13.34,0,4.15-.65,7.04-1.95,8.67-1.3,1.64-3.86,2.89-7.69,3.77,4.27.96,7.16,2.57,8.68,4.8,1.52,2.24,2.28,5.67,2.28,10.28v6.58ZM781.97,772.17l-52.7,40.56v-5.2c0-1.89-.1-3.68-.27-5.41l47.73-36.74c2.74-2.11,5.29-4.44,7.63-6.93h11.21c-3.88,5.12-8.44,9.76-13.61,13.73ZM816.77,653.82c3.18,3.85,5.16,7.38,5.94,10.6.78,3.22,1.17,12.08,1.17,26.59v47.41h-43.41v-59.73c0-9.62-.76-15.58-2.28-17.87-1.52-2.29-5.5-3.44-11.93-3.44v81.04h-46.74v-179.74h33.08c22.05,0,36.99.85,44.8,2.55,7.81,1.7,14.17,6.05,19.1,13.04,4.92,6.99,7.38,18.15,7.38,33.47,0,13.99-1.74,23.39-5.22,28.2-3.48,4.81-10.32,7.7-20.54,8.66,9.25,2.29,15.47,5.37,18.65,9.21Z"/>
    </g>
    <path class="st1" d="M362.82,587.82c-1.04-5.81-3.63-11.08-7.77-15.82-4.15-4.74-10.2-8.14-18.15-10.21-7.96-2.07-23.22-3.11-45.8-3.11h-34.97v179.74h58.95c11.17,0,19.54-.61,25.09-1.83,5.55-1.22,10.21-3.37,13.99-6.44,3.42-2.79,5.91-6.56,7.48-11.29.16-.49.32-.97.46-1.48,1.52-5.44,2.28-16.23,2.28-32.36v-62.95c0-10.39-.19-18.68-.58-24.89-.25-3.97-.57-7.09-.97-9.36ZM317.63,681.57c0,11.99-.78,19.34-2.33,22.04-1.55,2.7-5.7,4.05-12.43,4.05v-118.24c5.11,0,8.58.54,10.44,1.61,1.85,1.07,3.03,2.76,3.55,5.05.52,2.29.78,7.51.78,15.65v69.83Z"/>
    <path class="st1" d="M479.33,722.87c4.48-6.22,7.14-13.08,7.99-20.59.85-7.51,1.28-20.3,1.28-38.36v-30.75c0-16.31-.35-28.31-1.04-36-.09-1.03-.19-1.99-.3-2.86-.89-7.4-3.66-14.25-8.33-20.54-4.66-6.29-10.82-11.01-18.48-14.15-7.66-3.15-16.3-4.72-25.92-4.72-10.14,0-19.02,1.67-26.64,5-7.62,3.33-13.67,8.1-18.15,14.32-4.48,6.22-7.14,13.08-7.99,20.59-.08.73-.16,1.53-.24,2.36-.69,7.71-1.04,19.7-1.04,36v30.75c0,18.5.44,31.46,1.33,38.86.89,7.4,3.66,14.25,8.33,20.54,4.66,6.29,10.82,11.01,18.48,14.15,2.49,1.02,5.09,1.88,7.79,2.57,1.03-.16,2.09-.25,3.17-.25h18.45c.9,0,1.78.06,2.65.17.87-.11,1.75-.17,2.65-.17h10.49c2.57-.71,5.03-1.57,7.37-2.59,7.62-3.33,13.67-8.1,18.15-14.32ZM441.86,687.46c0,10.59-.44,17.28-1.33,20.09-.89,2.81-2.92,4.22-6.11,4.22s-5.09-1.22-5.94-3.66c-.85-2.44-1.28-8.88-1.28-19.32v-83.93c0-2.93.07-5.49.2-7.69.28-4.72.86-7.73,1.75-9.02,1.29-1.89,3.16-2.83,5.61-2.83,2.89,0,4.79,1.17,5.72,3.5.6,1.51,1,4.3,1.22,8.36.11,2.19.17,4.75.17,7.69v82.6Z"/>
    <path class="st1" d="M567.87,558.68l-3.25,33.42c-.17,1.68-.34,3.37-.51,5.07-2.53,25.64-4.92,54.7-7.18,87.18-1.79-25-4.45-54.06-7.98-87.18-1.31-12.28-2.74-25.11-4.29-38.5h-49.29l5.78,38.5,21.22,141.24h28.6c1.11-.07,2.23-.12,3.37-.12,1.26,0,2.49.04,3.71.12h35.31l18.69-141.24,5.09-38.5h-49.29Z"/>
    <polygon class="st1" points="706.09 702.45 671.78 702.45 671.78 662.92 700.98 662.92 700.98 628.73 671.78 628.73 671.78 597.17 671.78 594.65 702.98 594.65 702.98 558.68 625.04 558.68 625.04 597.17 625.04 738.42 706.09 738.42 706.09 702.45"/>
    <path class="st1" d="M818.66,635.95c3.48-4.81,5.22-14.21,5.22-28.2,0-15.32-2.46-26.48-7.38-33.47-4.92-6.99-11.29-11.34-19.1-13.04-7.81-1.7-22.74-2.55-44.8-2.55h-33.08v179.74h46.74v-81.04c6.44,0,10.42,1.15,11.93,3.44,1.52,2.29,2.28,8.25,2.28,17.87v59.73h43.41v-47.41c0-14.51-.39-23.37-1.17-26.59-.78-3.22-2.76-6.75-5.94-10.6-3.18-3.85-9.4-6.92-18.65-9.21,10.21-.96,17.06-3.85,20.54-8.66ZM780.47,613.19c0,7.92-1.05,12.6-3.16,14.04-2.11,1.44-5.79,2.17-11.05,2.17v-39.97c5.4,0,9.12.89,11.16,2.66,2.03,1.78,3.05,5.51,3.05,11.21v9.88Z"/>
    <path class="st5" d="M395.58,777.43c0-2.25-.4-3.73-1.21-4.43-.8-.7-2.27-1.05-4.4-1.05v15.78c2.07,0,3.53-.29,4.36-.85.83-.57,1.25-2.42,1.25-5.54v-3.9Z"/>
    <path class="st5" d="M684.78,798.77v19.86c2.6-.09,4.26-.5,4.97-1.23.72-.73,1.07-2.53,1.07-5.39v-6.62c0-3.04-.32-4.88-.96-5.52-.64-.64-2.34-1.01-5.08-1.1Z"/>
    <path class="st5" d="M688.62,772.34c-.66-.23-1.94-.36-3.84-.39v15.78c.79-.03,1.4-.04,1.84-.04,1.81,0,2.97-.45,3.46-1.34.5-.89.75-3.44.75-7.65,0-2.22-.21-3.78-.61-4.67-.41-.89-.94-1.45-1.6-1.69Z"/>
    <path class="st1" d="M412.71,830.77v-18.72c0-5.73-.15-9.23-.46-10.5-.31-1.27-1.09-2.67-2.35-4.19-1.26-1.52-3.71-2.73-7.36-3.64,4.03-.38,6.74-1.52,8.11-3.42,1.37-1.9,2.06-5.61,2.06-11.13,0-6.05-.97-10.45-2.92-13.22-1.94-2.76-4.46-4.48-7.54-5.15-3.08-.67-8.98-1.01-17.69-1.01h-13.06v70.96h18.45v-32c2.54,0,4.11.45,4.71,1.36.6.91.9,3.26.9,7.06v23.58h17.14ZM394.33,786.87c-.83.57-2.29.85-4.36.85v-15.78c2.13,0,3.6.35,4.4,1.05.8.7,1.21,2.18,1.21,4.43v3.9c0,3.13-.42,4.97-1.25,5.54Z"/>
    <path class="st1" d="M419.6,759.81v41.99c0,8.01.15,13.26.44,15.76.29,2.5,1.24,4.87,2.85,7.12,1.61,2.25,4.03,4.08,7.28,5.48s6.98,2.1,11.22,2.1c3.83,0,7.15-.59,9.97-1.78,2.82-1.18,5.09-2.92,6.82-5.22,1.72-2.29,2.76-4.53,3.11-6.71.35-2.18.53-5.95.53-11.33v-47.43h-18.45v52.29c0,3.54-.17,5.78-.5,6.73-.34.95-1.09,1.42-2.26,1.42-1.02,0-1.7-.43-2.04-1.29-.34-.86-.5-2.84-.5-5.94v-53.21h-18.45Z"/>
    <polygon class="st1" points="510.15 759.81 494.73 759.81 494.73 791.76 484.38 759.81 468.95 759.81 468.95 830.77 484.38 830.77 484.38 798.51 493.98 830.77 510.15 830.77 510.15 759.81"/>
    <path class="st1" d="M576.47,790.71v-6.74c0-6.62-.56-11.5-1.67-14.64-1.11-3.14-3.43-5.76-6.97-7.86-3.54-2.1-8.02-3.15-13.46-3.15-4,0-7.55.68-10.63,2.04-3.08,1.36-5.49,3.22-7.23,5.59-1.74,2.37-2.78,4.83-3.13,7.39-.35,2.56-.53,6.39-.53,11.51v20.73c0,6.95.57,12.16,1.71,15.63,1.14,3.46,3.46,6.17,6.97,8.13,3.51,1.96,7.96,2.94,13.37,2.94s9.58-1.16,13.13-3.47c3.55-2.31,5.84-5,6.88-8.08,1.04-3.07,1.56-8.28,1.56-15.63v-2.77h-18.45v8.92c0,3.9-.21,6.37-.64,7.43-.42,1.05-1.32,1.58-2.7,1.58s-2.35-.53-2.76-1.58c-.41-1.05-.61-3.3-.61-6.75v-32.96c0-3.59.2-5.93.61-7.01.41-1.08,1.37-1.62,2.89-1.62,1.34,0,2.21.45,2.61,1.33.39.89.59,3.13.59,6.71v12.33h18.45Z"/>
    <polygon class="st1" points="612.77 816.57 601.54 816.57 601.54 759.81 583.09 759.81 583.09 830.77 612.77 830.77 612.77 816.57"/>
    <path class="st1" d="M620.26,824.68c1.61,2.25,4.03,4.08,7.28,5.48s6.98,2.1,11.22,2.1c3.83,0,7.15-.59,9.97-1.78,2.82-1.18,5.09-2.92,6.82-5.22,1.72-2.29,2.76-4.53,3.11-6.71.35-2.18.53-5.95.53-11.33v-47.43h-18.45v52.29c0,3.54-.17,5.78-.5,6.73-.34.95-1.09,1.42-2.26,1.42-1.02,0-1.7-.43-2.04-1.29-.34-.86-.5-2.84-.5-5.94v-53.21h-18.45v41.99c0,8.01.15,13.26.44,15.76.29,2.5,1.24,4.87,2.85,7.12Z"/>
    <path class="st1" d="M698.33,792.44c3.83-.88,6.39-2.13,7.69-3.77,1.3-1.64,1.95-4.53,1.95-8.67,0-6.13-.92-10.58-2.76-13.34-1.84-2.76-4.26-4.59-7.25-5.5-3-.91-7.4-1.36-13.22-1.36h-18.41v70.96h21.35c7.42,0,12.33-.42,14.73-1.27,2.4-.85,4.14-2.43,5.24-4.74,1.1-2.31,1.64-5.86,1.64-10.66v-6.58c0-4.62-.76-8.05-2.28-10.28-1.52-2.24-4.41-3.84-8.68-4.8ZM690.83,812.01c0,2.86-.36,4.66-1.07,5.39-.72.73-2.37,1.14-4.97,1.23v-19.86c2.75.09,4.44.45,5.08,1.1.64.64.96,2.48.96,5.52v6.62ZM690.09,786.35c-.5.89-1.65,1.34-3.46,1.34-.44,0-1.05.02-1.84.04v-15.78c1.9.03,3.18.16,3.84.39.66.23,1.19.8,1.6,1.69.41.89.61,2.45.61,4.67,0,4.21-.25,6.76-.75,7.65Z"/>
    <path class="st1" d="M529.68,891.95h7.7v-28.58h-5.46v13.53c.03.87.06,1.75.09,2.62.03.87.07,1.75.11,2.62.04.87.07,1.75.1,2.64h-.14l-12.41-21.41h-7.64v28.58h5.42v-13.45c-.04-.91-.08-1.82-.12-2.73-.04-.91-.08-1.81-.12-2.73-.04-.91-.08-1.82-.14-2.72h.18l12.43,21.62Z"/>
    <polygon class="st1" points="568 891.95 568 863.36 561.96 863.36 561.96 874.57 550.64 874.57 550.64 863.36 544.58 863.36 544.58 891.95 550.64 891.95 550.64 879.61 561.96 879.61 561.96 891.95 568 891.95"/>
    <polygon class="st1" points="582.4 874.16 577.14 871.74 579.56 877 577.14 882.26 582.4 879.84 587.67 882.26 585.25 877 587.67 871.74 582.4 874.16"/>
    <polygon class="st1" points="497.6 874.16 492.34 871.74 494.75 877 492.34 882.26 497.6 879.84 502.86 882.26 500.44 877 502.86 871.74 497.6 874.16"/>
    <path class="st1" d="M602.36,499.03c-.2-.17-.6-.39-1.09-.62-1.35-.65-3.43-1.42-4.25-1.74-2.71-1.04-5.73-2.02-8.74-2.74-1.35-.32-2.7-.59-4.02-.78-.36-.05-.72-.11-1.08-.15-2.08-.25-3.54-.71-5.07,1.03l-6.84,6.61-2.75,2.66c-.6,2.02.78,3.89,2.75,3.8.28-.01.58-.07.88-.16l9.16-6.79,2.94.94,4.02,1.28,1.96.62-.5,1.55c-.43.07-.95-.18-1.46-.42-.68-.32-1.35-.63-1.8-.18l-2.22,3.32-7.66,11.44c-.55,1.32-.25,2.78.93,3.63l6.73,4.93,4.02,2.95.8.59-.8.6-4.02,3.03-6.86,5.18c-1.01,2.63.96,5.46,3.85,5.1,5.89-3.23,11.89-6.35,17.53-9.99,1.14-1.53,1.88-3.49,1.17-5.37-.66-1.76-4.56-4.63-6.16-5.96-1.29-1.07-3.46-2.44-4.52-3.56-.16-.17-.39-.31-.39-.58,0-.15,1.57-1.93,1.83-2.22,3.44-3.78,7.09-7.39,10.56-11.16.68-.74,1.36-1.49,2.03-2.24.58-.89-.27-4.02-.94-4.59Z"/>
    <path class="st1" d="M519.23,530.2c-.17-1.98-2.18-3.29-3.57-4.51-1.29-1.13-2.83-2.23-4.28-3.35-.92-.7-1.8-1.41-2.55-2.14-.33-.32-.83-.66-.78-1.15l3.33-3.59,10.94-11.8c.51-.89-.1-3.98-.79-4.62-.46-.43-4.45-2.03-5.33-2.37-1.58-.61-3.19-1.16-4.82-1.65-2.67-.8-5.4-1.44-8.16-1.87-1.33-.2-2.68-.35-4.02-.46-.13,0-.26-.03-.38-.03l-10.1,9.34c-.76,1.15-1.47,1.18-1.2,2.75.33,1.89,1.98,2.68,3.77,2.13l7.91-5.93,1.1-.82c.17-.03,1.43.34,2.92.81,2.19.69,4.87,1.6,5.33,1.82,1.01.47.74,1.11-.03,1.71-.89-.06-2.25-1.21-3.05-.54l-2.24,3.39-4.02,6.08-3.62,5.47c-.58,1.08-.06,2.26.64,3.15l2.97,2.17,4.02,2.94,4.4,3.22.21.59-4.61,3.56-4.02,3.1-2.77,2.14c-.49,1.56-.07,3.47,1.37,4.39,1.75,1.12,2.51.52,4.11-.25,2.82-1.37,6.47-3.31,9.74-5.22,1.66-.97,3.23-1.93,4.55-2.81,2.11-1.41,3.26-3.01,3.03-5.65Z"/>
    <path class="st1" d="M500.46,527.23c-.36-.34-.8-.65-1.26-.96-1.13-.77-2.45-1.5-3.46-2.41-.73-.66-1.86-1.59-1.92-2.6l-7.61,11.21-4.02,5.92-4.13,6.08c-1.39,2.9,2.99,5.46,5.18,3.83,1.5-1.11,4.28-4.67,5.68-6.26,3.51-3.99,6.91-8.1,10.28-12.21.56-.68,1.11-1.35,1.67-2.03.07-.27-.25-.44-.41-.58Z"/>
    <path class="st1" d="M558.83,544.79c-.94,2.45,2.82,4.83,4.96,3.81,6.38-6.62,12.19-13.75,18.1-20.78.1-.4-2.92-2.15-3.45-2.55-1.46-1.09-2.94-2.22-3.88-3.81l-3.28,4.87-4.02,5.97-8.42,12.5Z"/>
    <path class="st1" d="M592.29,490.69c.58-.16,1.23-.62,1.74-.95.95-.61,4.48-4.02,5.44-3.31-2.63,3.81-1.21,8.12,1.8,10.28,1.15.83,2.54,1.33,4.02,1.37,1.31.03,2.69-.3,4.05-1.1,4.33-2.56,4.33-7.9,1.67-11.09-1.64-1.96-4.28-3.11-7.54-2.29-.62.16-1.71.85-2.02.87-.13.01-1.39-.71-1.8-.83-2.23-.65-3.96-.31-5.95.78-.69.38-1.37.93-2.07,1.46-1.06.81-2.16,1.59-3.36,1.69-.09,0-.17.02-.26.02-.88,0-1.92-.46-2.79-.59.45,1.39,1.64,2.54,3.05,3.21,1.28.61,2.74.83,4.01.48Z"/>
    <path class="st1" d="M528.64,496.9c4.3-2.67,4.31-7.88,1.66-11.01-1.52-1.8-3.91-2.92-6.88-2.49-1.84.27-3.86,1.69-4.85,3.24-3.2,5.01.33,10.64,5.13,11.36,1.58.23,3.29-.06,4.95-1.09Z"/>
    <path class="st1" d="M534.52,514.14c-.43-.04-.86-.07-1.3-.09-2.12-.11-4.33-.08-6.39-.3-.47-.05-1.31-.16-1.66-.46-.44-.38-.99-2.51-1.48-4.37-.3-1.11-.57-2.12-.8-2.59-.13-.27-.23-.48-.49-.66-.8,1.12-6.01,5.93-6.06,6.84-.02.39,2.38,5.21,2.78,5.86.45.73.99,1.61,1.92,1.73.88,0,1.77-.03,2.65-.07,2.01-.08,4.03-.23,6.02-.32,1.08-.05,2.31,0,3.51-.02.92,0,1.83-.04,2.64-.19.54-.1,1.04-.59,1.38-1.19.33-.58.52-1.26.45-1.77-.07-.49-.23-.88-.45-1.2-.57-.83-1.59-1.11-2.72-1.22Z"/>
    <path class="st1" d="M618.28,515.74c-.26-.52-.68-1-1.24-1.37-3.63-.45-7.38-.24-10.95-.98l-.8-2.32-1.87-5.39-2.15,2.35-4.11,4.49.15.61c1.24,1.45,2.44,5.88,3.96,6.78,0,0,.01.01.02.02.77.44,2.68.18,4,.04.31-.03.59-.06.81-.06,2.81-.08,5.67-.02,8.47-.19.49-.03,2.15-.14,2.46-.23.22-.07.75-.62.9-.83.14-.18.25-.37.34-.55.39-.81.36-1.64,0-2.36Z"/>
  </g>
  <g id="iTczBM">
    <g>
      <g>
        <path class="st4" d="M581.47,547.1c-2.18,0-4.22-1.07-5.45-2.87-1.28-1.86-1.55-4.25-.73-6.39.2-.52.55-.98.99-1.32l8.59-6.48-8.42-6.17c-2.28-1.65-3.06-4.56-1.93-7.25.07-.18.17-.35.27-.51l8.96-13.39-1.15-.37-8.03,5.95c-.26.19-.55.34-.85.44-.65.21-1.3.32-1.96.32-1.84,0-3.52-.84-4.62-2.31-1.14-1.53-1.47-3.5-.91-5.39.15-.5.42-.95.79-1.3l9.62-9.29c1.35-1.48,2.96-2.21,4.91-2.21.72,0,1.4.09,2.06.18.22.03.44.06.67.09,4.3.52,9.52,1.9,14.7,3.9l.34.13c3.61,1.38,5.11,2.08,5.92,2.77,1.68,1.43,3.06,6.2,1.52,8.56-.08.12-.17.24-.26.34-2.32,2.63-4.77,5.18-7.14,7.64-1.86,1.93-3.78,3.93-5.6,5.93.29.21.58.43.87.64.67.49,1.36.99,1.94,1.47.26.22.58.47.94.76,3.02,2.42,5.39,4.43,6.17,6.51.98,2.6.4,5.61-1.59,8.27-.21.29-.48.53-.78.73-4.69,3.02-9.64,5.71-14.43,8.31-1.16.63-2.32,1.26-3.48,1.89-.33.18-.69.3-1.07.35-.3.04-.59.06-.88.06Z"/>
        <path class="st5" d="M581.55,491.56c.72,0,1.49.14,2.38.25,4.59.55,9.68,2.06,13.98,3.72,1.13.44,4.63,1.74,5.39,2.39.68.58,1.54,3.74.95,4.64-4.09,4.64-8.55,8.97-12.72,13.54-.27.29-1.85,2.09-1.85,2.24,0,.28.22.42.39.59,1.08,1.13,3.27,2.51,4.57,3.6,1.61,1.34,5.56,4.25,6.23,6.03.71,1.89-.03,3.88-1.18,5.42-5.7,3.67-11.77,6.83-17.72,10.09-.17.02-.34.03-.5.03-2.63,0-4.34-2.68-3.38-5.19l11.81-8.91-11.67-8.56c-1.19-.86-1.5-2.33-.94-3.67l9.98-14.92c.16-.16.36-.23.57-.23.77,0,1.78.85,2.57.85.05,0,.1,0,.15-.01l.5-1.57-9.02-2.87-9.26,6.86c-.35.12-.7.17-1.03.17-1.92,0-3.24-1.85-2.65-3.85l9.7-9.36c.9-1.02,1.77-1.29,2.75-1.29M581.55,485.56h0c-2.77,0-5.15,1.05-7.06,3.11l-9.56,9.23c-.74.72-1.29,1.62-1.58,2.61-.84,2.82-.33,5.75,1.38,8.04,1.67,2.23,4.22,3.51,7.02,3.51.78,0,1.57-.1,2.34-.3l-1.8,2.69c-.21.32-.4.66-.55,1.02-1.65,3.93-.44,8.39,2.95,10.85l5.14,3.77-5.36,4.05c-.9.68-1.59,1.59-1.99,2.64-1.17,3.07-.78,6.49,1.06,9.17,1.79,2.61,4.76,4.17,7.93,4.17.41,0,.84-.03,1.25-.08.75-.09,1.47-.33,2.14-.69,1.15-.63,2.3-1.26,3.46-1.88,4.84-2.63,9.85-5.34,14.63-8.43.6-.39,1.13-.88,1.56-1.45,2.61-3.5,3.34-7.55,1.99-11.13-1.05-2.8-3.72-5.09-7.1-7.8-.34-.28-.65-.52-.9-.73-.08-.07-.17-.14-.25-.21,1.09-1.16,2.21-2.31,3.29-3.44,2.39-2.49,4.87-5.06,7.23-7.74.19-.22.37-.45.52-.69,1.2-1.85,1.48-4.23.82-7.08-.56-2.43-1.54-4.24-2.9-5.41-1.13-.97-2.72-1.74-6.8-3.29l-.33-.13c-5.4-2.08-10.88-3.53-15.42-4.07-.21-.03-.42-.05-.62-.08-.72-.1-1.55-.21-2.47-.21h0Z"/>
      </g>
      <g>
        <path class="st4" d="M499.38,547.12c-1.11,0-2.21-.36-3.36-1.09-2.5-1.6-3.59-4.83-2.63-7.86.18-.59.54-1.1,1.03-1.48l8.65-6.67-8.8-6.43c-.21-.16-.41-.34-.57-.55-1.68-2.1-2.03-4.46-.95-6.47.04-.08.09-.16.14-.24l9.05-13.69c-.41-.13-.79-.25-1.12-.34l-7.97,5.97c-.28.21-.59.37-.92.47-.66.2-1.32.3-1.98.3-2.88,0-5.16-1.93-5.66-4.81-.39-2.26.4-3.51,1.31-4.52.15-.17.26-.28.35-.43.13-.2.29-.38.47-.55l10.21-9.44c.56-.51,1.28-.8,2.04-.8.07,0,.14,0,.2,0,6,.41,12.2,1.84,18.44,4.24,5.35,2.06,6.08,2.74,6.35,3,1.61,1.5,2.6,6.16,1.36,8.35-.11.2-.25.38-.4.55l-12.56,13.56c.72.59,1.52,1.19,2.34,1.81,1.1.83,2.25,1.69,3.27,2.59.21.18.43.36.65.55,1.57,1.3,3.71,3.08,3.97,6,.46,5.23-3.19,7.67-4.38,8.47-4.25,2.84-10.66,6.3-14.8,8.32l-.42.21c-.91.46-1.95.98-3.3.98Z"/>
        <path class="st5" d="M498.66,491.48c6.01.41,11.96,1.89,17.57,4.05.89.34,4.92,1.96,5.39,2.39.7.65,1.31,3.77.8,4.67l-14.41,15.56c-.05.5.45.84.79,1.16,1.96,1.89,4.78,3.68,6.9,5.55,1.4,1.23,3.44,2.56,3.61,4.56.23,2.67-.93,4.29-3.06,5.71-3.95,2.64-10.14,6.02-14.45,8.11-.98.47-1.64.88-2.4.88-.5,0-1.05-.18-1.75-.62-1.46-.93-1.88-2.86-1.38-4.43l11.53-8.89-.22-.59-11.51-8.42c-.71-.89-1.24-2.09-.65-3.18l9.99-15.1c.18-.15.39-.21.62-.21.79,0,1.77.71,2.47.76.79-.6,1.06-1.24.03-1.72-.78-.37-7.7-2.66-8.32-2.66,0,0-.02,0-.02,0l-9.1,6.82c-.38.12-.75.17-1.1.17-1.35,0-2.44-.81-2.71-2.33-.28-1.59.44-1.62,1.21-2.78l10.21-9.44M498.66,485.48c-1.5,0-2.96.57-4.07,1.59l-10.21,9.44c-.34.31-.64.67-.9,1.05-.04.04-.07.08-.11.12-.75.83-2.74,3.03-2.04,7.05.75,4.3,4.29,7.3,8.62,7.3.79,0,1.59-.1,2.38-.3l-1.94,2.94c-.1.15-.2.31-.28.47-1.65,3.07-1.18,6.72,1.25,9.77.33.41.71.78,1.14,1.09l5.57,4.07-5.49,4.23c-.97.75-1.69,1.78-2.06,2.95-1.36,4.33.24,8.97,3.88,11.29,1.65,1.05,3.28,1.56,4.97,1.56,2.06,0,3.61-.78,4.64-1.29l.39-.19c4.24-2.06,10.79-5.6,15.16-8.52,4.19-2.8,6.11-6.58,5.71-11.22-.37-4.17-3.29-6.6-5.04-8.05-.2-.17-.4-.33-.59-.5-1.02-.9-2.1-1.72-3.16-2.52l10.33-11.16c.31-.34.58-.71.81-1.11,2.02-3.54.61-9.67-1.92-12.03-.6-.56-1.43-1.33-7.32-3.6-6.52-2.51-13.01-4.01-19.32-4.44-.14,0-.27-.01-.41-.01h0Z"/>
      </g>
      <g>
        <path class="st4" d="M481.25,551.22c-2.34,0-4.73-1.3-5.96-3.24-1.06-1.68-1.18-3.66-.33-5.44.06-.14.14-.27.23-.39l15.93-23.46c.57-.84,1.5-1.31,2.48-1.31.27,0,.53.04.8.11,1.11.31,1.94,1.22,2.15,2.33.19.23.59.58.82.79l.19.17c.53.48,1.28.96,2.07,1.46.91.58,1.85,1.18,2.66,1.91,1.71,1.36,1.51,2.97,1.34,3.61-.11.42-.31.81-.58,1.15l-.64.78c-3.71,4.52-7.56,9.2-11.5,13.68-.35.4-.8.93-1.29,1.51-1.99,2.38-3.61,4.27-4.91,5.23-.97.72-2.16,1.1-3.45,1.1Z"/>
        <path class="st5" d="M493.61,520.38c.06,1.02,1.21,1.96,1.94,2.63,1.43,1.29,3.49,2.23,4.76,3.41.16.15.49.32.41.59-3.97,4.83-7.94,9.69-12.08,14.39-1.41,1.6-4.22,5.2-5.74,6.32-.48.35-1.06.51-1.66.51-2.19,0-4.67-2.08-3.58-4.39l15.93-23.46M493.61,514.38c-1.95,0-3.83.96-4.96,2.63l-15.93,23.46c-.17.25-.32.51-.45.79-1.3,2.73-1.12,5.76.5,8.33,1.78,2.82,5.11,4.64,8.49,4.64,1.93,0,3.74-.59,5.23-1.69,1.57-1.16,3.24-3.1,5.43-5.72.47-.56.9-1.07,1.24-1.46,3.98-4.51,7.83-9.21,11.56-13.75l.65-.8c.55-.67.95-1.45,1.17-2.29.24-.94.79-4.15-2.31-6.65-.98-.87-2.04-1.55-2.99-2.15-.65-.41-1.32-.84-1.67-1.16l-.2-.18s-.1-.09-.16-.14c-.67-1.75-2.14-3.12-4.01-3.63-.53-.15-1.07-.22-1.6-.22h0Z"/>
      </g>
      <g>
        <path class="st4" d="M563.16,551.25c-2.29,0-4.69-1.27-5.99-3.15-1.06-1.54-1.3-3.37-.66-5.02.08-.21.19-.41.31-.6l15.89-23.58c.56-.83,1.49-1.32,2.49-1.32.03,0,.06,0,.08,0,1.03.03,1.97.58,2.49,1.47.67,1.13,1.93,2.07,3.15,2.98.12.08.36.24.66.43,2.65,1.68,4.56,2.89,3.93,5.3-.11.43-.32.83-.61,1.17-.96,1.14-1.91,2.28-2.87,3.43-4.95,5.92-10.08,12.04-15.56,17.73-.25.26-.55.47-.87.63-.75.36-1.57.54-2.45.54Z"/>
        <path class="st5" d="M575.2,520.58c.96,1.61,2.45,2.74,3.93,3.85.53.4,3.59,2.17,3.49,2.57-5.98,7.11-11.85,14.32-18.29,21.01-.35.17-.75.25-1.16.25-2.12,0-4.65-2.02-3.85-4.09l15.89-23.58M575.2,514.58c-1.99,0-3.86.99-4.98,2.65l-15.89,23.58c-.25.37-.46.78-.62,1.2-1,2.59-.64,5.43.99,7.79,1.86,2.7,5.18,4.45,8.46,4.45,1.33,0,2.59-.28,3.74-.83.65-.31,1.24-.73,1.74-1.25,5.56-5.76,10.71-11.93,15.7-17.89.95-1.14,1.91-2.28,2.87-3.42.58-.68.99-1.49,1.21-2.35,1.18-4.53-2.52-6.87-5.22-8.59-.22-.14-.41-.26-.54-.34-.92-.69-1.94-1.47-2.3-2.07-1.05-1.77-2.93-2.87-4.99-2.93-.06,0-.11,0-.17,0h0Z"/>
      </g>
      <g>
        <path class="st4" d="M606.44,499.96c-3.8,0-7.44-2.24-9.25-5.7-.5-.96-.85-1.96-1.03-2.98-.58.38-1.34.85-2.22,1.1-.67.19-1.38.28-2.11.28-3.85,0-7.58-2.57-8.68-5.98-.32-.99-.1-2.07.57-2.87.57-.68,1.41-1.06,2.28-1.06.15,0,.3.01.45.03.54.08,1.04.22,1.48.35.29.08.73.21.89.21.39,0,1.46-.82,2.1-1.32.69-.53,1.4-1.08,2.2-1.52,1.85-1.02,3.53-1.49,5.29-1.49.98,0,1.96.15,3.01.45.31.09.62.22,1.01.41.4-.19.83-.37,1.27-.48.96-.24,1.92-.37,2.85-.37,4.68,0,8.68,3.13,9.96,7.79,1.27,4.63-.54,9.17-4.61,11.58-1.73,1.02-3.56,1.54-5.45,1.54Z"/>
        <path class="st5" d="M598.41,482.03c.69,0,1.4.11,2.17.33.41.12,1.67.84,1.82.84,0,0,0,0,0,0,.31-.03,1.41-.72,2.04-.88.74-.19,1.44-.27,2.12-.27,7.19,0,10.29,9.96,3.82,13.79-1.32.78-2.65,1.12-3.92,1.12-5.49,0-9.76-6.4-6.05-11.78-.09-.07-.2-.1-.33-.1-1.28,0-4.29,2.89-5.16,3.45-.52.33-1.17.8-1.76.96-.42.12-.86.17-1.31.17-2.43,0-5.09-1.63-5.82-3.9.88.13,1.93.6,2.81.6h0c2.13,0,3.92-2.2,5.75-3.21,1.32-.73,2.52-1.12,3.84-1.12M598.41,476.03c-2.25,0-4.45.61-6.73,1.87-1.01.56-1.85,1.2-2.59,1.77-.19.15-.44.34-.66.5-.44-.12-.95-.25-1.52-.34-.3-.05-.61-.07-.91-.07-1.74,0-3.42.76-4.57,2.11-1.35,1.58-1.78,3.75-1.14,5.73,1.51,4.67,6.36,8.05,11.53,8.05.88,0,1.74-.1,2.56-.3.05.1.1.2.15.29,2.37,4.51,6.93,7.31,11.91,7.31,2.4,0,4.81-.68,6.98-1.96,5.19-3.07,7.59-9.08,5.98-14.96-1.64-5.98-6.8-10-12.85-10-1.18,0-2.39.15-3.59.46-.18.05-.36.1-.53.15-.06-.02-.12-.04-.18-.06-1.32-.38-2.58-.57-3.84-.57h0Z"/>
      </g>
      <g>
        <path class="st4" d="M524.83,499.94c-3.79,0-7.3-2.13-9.18-5.55-1.83-3.35-1.67-7.32.44-10.62,1.52-2.38,4.33-4.24,6.99-4.62.57-.08,1.14-.12,1.7-.12,4.74,0,8.8,3.08,10.11,7.67,1.3,4.54-.48,9.1-4.52,11.62-1.72,1.07-3.64,1.63-5.55,1.63Z"/>
        <path class="st5" d="M524.78,482.02c7.35,0,10.49,9.71,4.01,13.74-1.32.82-2.67,1.18-3.97,1.18-5.34,0-9.67-6.14-6.21-11.55,1-1.56,3.04-3,4.9-3.27.43-.06.86-.09,1.27-.09M524.78,476.02h0c-.7,0-1.42.05-2.13.16-3.53.51-7.09,2.86-9.09,5.98-2.71,4.24-2.92,9.35-.55,13.68,2.4,4.38,6.92,7.11,11.81,7.11,2.48,0,4.94-.72,7.14-2.09,5.21-3.24,7.49-9.12,5.82-14.99-1.68-5.89-6.91-9.85-13-9.85h0Z"/>
      </g>
      <g>
        <path class="st4" d="M521.12,522.22c-.13,0-.27,0-.4-.03-2.35-.32-3.48-2.15-4.09-3.14-.04-.06-3.37-5.86-3.26-7.69.09-1.55.98-2.6,4.72-6.43.73-.75,1.74-1.78,1.97-2.07.6-.79,1.54-1.22,2.47-1.22.57,0,1.15.16,1.65.5.91.62,1.29,1.4,1.49,1.82.37.76.67,1.85,1.12,3.55.17.66.43,1.61.64,2.3,1.15.12,2.37.15,3.67.18,1.29.03,2.62.07,3.92.19,4.57.43,5.65,3.33,5.89,5.01.35,2.48-1.49,5.86-4.3,6.36-1.19.21-2.45.24-3.52.24h-1.94c-.39-.01-.77,0-1.13.01-.87.04-1.74.09-2.62.15-2.05.12-4.16.25-6.28.25h0Z"/>
        <path class="st5" d="M522.49,504.63c.26.18.36.4.5.67.62,1.27,1.59,6.42,2.31,7.03.35.3,1.2.41,1.68.46,2.51.27,5.26.16,7.77.4,1.59.15,2.95.63,3.2,2.44.15,1.04-.76,2.8-1.85,2.99-.91.16-1.95.19-3,.19-.65,0-1.31-.01-1.94-.01-.44,0-.87,0-1.27.03-2.9.14-5.84.39-8.76.4-.94-.13-1.49-1.01-1.94-1.75-.41-.66-2.84-5.53-2.81-5.92.05-.93,5.32-5.78,6.13-6.92M522.5,498.63c-1.83,0-3.63.84-4.8,2.4-.27.31-1.12,1.18-1.74,1.82-3.6,3.68-5.41,5.52-5.57,8.35-.1,1.75.49,3.06,1.84,5.83.14.28,1.34,2.75,1.86,3.59.69,1.11,2.49,4.04,6.25,4.55.27.04.53.05.8.05h.01c2.21,0,4.37-.13,6.46-.26.86-.05,1.72-.1,2.58-.14.31-.02.64-.02.98-.02.29,0,.6,0,.9,0,.35,0,.7,0,1.04,0,1.21,0,2.63-.03,4.05-.28,4.53-.8,7.3-5.8,6.74-9.74-.23-1.61-1.52-6.91-8.58-7.58-1.41-.13-2.79-.17-4.12-.21-.49-.01-.97-.03-1.43-.04-.02-.07-.04-.15-.06-.21-.5-1.88-.83-3.08-1.32-4.09-.28-.58-.94-1.92-2.5-2.99-1.04-.71-2.22-1.05-3.38-1.05h0Z"/>
      </g>
      <g>
        <path class="st4" d="M603.67,522.27c-1.24,0-2.17-.2-2.93-.64-1.74-1-2.68-3.08-3.68-5.28-.35-.77-.88-1.93-1.13-2.25-.29-.35-.52-.79-.63-1.23l-.15-.62c-.24-.98.02-2.01.7-2.75l6.33-6.91c.57-.63,1.38-.97,2.21-.97.2,0,.4.02.61.06,1.03.21,1.88.96,2.23,1.95l2.12,6.11c1.42.18,2.89.25,4.43.33,1.55.08,3.14.15,4.75.35.47.06.91.22,1.3.49,1.51,1.02,2.5,2.48,2.78,4.12.27,1.56-.13,3.15-1.13,4.5-.27.36-1.23,1.56-2.47,1.93-.26.08-.69.21-3.16.35-1.81.1-3.64.12-5.41.14-1.09.01-2.17.02-3.25.05-.26,0-.61.05-1,.09-.74.08-1.65.18-2.51.18Z"/>
        <path class="st5" d="M604.38,504.63l2.71,7.79c3.61.75,7.39.54,11.06.99,1.53,1.03,2.07,2.78.91,4.34-.16.21-.69.77-.91.84-.32.09-1.99.2-2.49.23-2.83.16-5.73.11-8.56.19-.77.02-2.24.27-3.42.27-.6,0-1.12-.06-1.44-.25-1.55-.89-2.76-5.4-4.02-6.87l-.15-.62,6.33-6.91M604.38,498.63c-1.66,0-3.28.69-4.42,1.95l-6.33,6.91c-1.36,1.48-1.88,3.54-1.4,5.49l.15.62c.21.84.6,1.63,1.14,2.3.19.32.56,1.14.81,1.69,1.1,2.42,2.34,5.16,4.92,6.64,1.63.93,3.31,1.04,4.43,1.04,1.02,0,2.02-.11,2.83-.19.28-.03.65-.07.78-.08,1.04-.03,2.11-.04,3.17-.05,1.8-.02,3.67-.04,5.55-.15,2.81-.16,3.41-.34,3.84-.47,2-.59,3.39-2.14,4.03-3.02,1.49-2.01,2.09-4.42,1.68-6.8-.42-2.46-1.87-4.62-4.07-6.1-.78-.52-1.67-.86-2.61-.97-1.72-.21-3.37-.29-4.97-.37-.81-.04-1.61-.08-2.37-.13l-1.49-4.3c-.69-2-2.39-3.48-4.45-3.91-.4-.08-.81-.12-1.21-.12h0Z"/>
      </g>
    </g>
  </g>
  <g id="iTczBM1" data-name="iTczBM">
    <g>
      <path class="st1" d="M578.08,538.91l11.81-8.91-11.67-8.56c-1.19-.86-1.5-2.33-.94-3.67l9.98-14.92c.8-.79,2.27.76,3.29.61l.5-1.57-9.02-2.87-9.26,6.86c-2.44.8-4.37-1.34-3.68-3.68l9.7-9.36c1.55-1.76,3.02-1.29,5.13-1.04,4.59.55,9.68,2.06,13.98,3.72,1.13.44,4.63,1.74,5.39,2.39.68.58,1.54,3.74.95,4.64-4.09,4.64-8.55,8.97-12.72,13.54-.27.29-1.85,2.09-1.85,2.24,0,.28.22.42.39.59,1.08,1.13,3.27,2.51,4.57,3.6,1.61,1.34,5.56,4.25,6.23,6.03.71,1.89-.03,3.88-1.18,5.42-5.7,3.67-11.77,6.83-17.72,10.09-2.91.37-4.91-2.49-3.89-5.16Z"/>
      <path class="st1" d="M507.55,529.58l-11.51-8.42c-.71-.89-1.24-2.09-.65-3.18l9.99-15.1c.81-.68,2.19.48,3.09.55.79-.6,1.06-1.24.03-1.72-.79-.37-7.91-2.73-8.34-2.66l-9.1,6.82c-1.81.55-3.48-.24-3.81-2.15-.28-1.59.44-1.62,1.21-2.78l10.21-9.44c6.01.41,11.96,1.89,17.57,4.05.89.34,4.92,1.96,5.39,2.39.7.65,1.31,3.77.8,4.67l-14.41,15.56c-.05.5.45.84.79,1.16,1.96,1.89,4.78,3.68,6.9,5.55,1.4,1.23,3.44,2.56,3.61,4.56.23,2.67-.93,4.29-3.06,5.71-3.95,2.64-10.14,6.02-14.45,8.11-1.62.79-2.38,1.39-4.15.26-1.46-.93-1.88-2.86-1.38-4.43l11.53-8.89-.22-.59Z"/>
      <path class="st1" d="M493.61,520.38c.06,1.02,1.21,1.96,1.94,2.63,1.43,1.29,3.49,2.23,4.76,3.41.16.15.49.32.41.59-3.97,4.83-7.94,9.69-12.08,14.39-1.41,1.6-4.22,5.2-5.74,6.32-2.21,1.64-6.64-.94-5.24-3.87l15.93-23.46Z"/>
      <path class="st1" d="M575.2,520.58c.96,1.61,2.45,2.74,3.93,3.85.53.4,3.59,2.17,3.49,2.57-5.98,7.11-11.85,14.32-18.29,21.01-2.17,1.03-5.97-1.37-5.01-3.85l15.89-23.58Z"/>
      <path class="st1" d="M600.39,485.18c-.97-.71-4.54,2.74-5.5,3.35-.52.33-1.17.8-1.76.96-2.69.75-6.26-1.04-7.13-3.73.88.13,1.93.6,2.82.6,2.13,0,3.92-2.2,5.75-3.21,2-1.1,3.75-1.44,6.01-.79.41.12,1.69.85,1.82.84.31-.03,1.41-.72,2.04-.88,8.65-2.19,13.01,9.33,5.93,13.52-7,4.14-14.55-4.03-9.98-10.66Z"/>
      <path class="st1" d="M523.51,482.11c8.24-1.2,12.12,9.4,5.28,13.65-6.76,4.2-14.48-3.64-10.18-10.37,1-1.56,3.04-3,4.9-3.27Z"/>
      <path class="st1" d="M522.49,504.63c.26.18.36.4.5.67.62,1.27,1.59,6.42,2.31,7.03.35.3,1.2.41,1.68.46,2.51.27,5.26.16,7.77.4,1.59.15,2.95.63,3.2,2.44.15,1.04-.76,2.8-1.85,2.99-1.87.33-4.29.11-6.21.21-2.9.14-5.84.39-8.76.4-.94-.13-1.49-1.01-1.94-1.75-.41-.66-2.84-5.53-2.81-5.92.05-.93,5.32-5.78,6.13-6.92Z"/>
      <path class="st1" d="M604.38,504.63l2.71,7.79c3.61.75,7.39.54,11.06.99,1.53,1.03,2.07,2.78.91,4.34-.16.21-.69.77-.91.84-.32.09-1.99.2-2.49.23-2.83.16-5.73.11-8.56.19-1.16.03-3.91.57-4.87.02-1.55-.89-2.76-5.4-4.02-6.87l-.15-.62,6.33-6.91Z"/>
    </g>
  </g>
</svg>